<svg width="247" height="101" viewBox="0 0 247 101" fill="none" xmlns="http://www.w3.org/2000/svg">
<path d="M138.643 13.6275V30.5866H142.121V19.5069H142.262L146.651 30.5038H149.019L153.408 19.5483H153.548V30.5866H157.026V13.6275H152.604L147.934 25.0219H147.735L143.065 13.6275H138.643Z" fill="#C14041"/>
<path d="M163.541 30.8268C165.421 30.8268 166.638 30.007 167.259 28.8228H167.359V30.5866H170.704V22.0077C170.704 18.9769 168.137 17.7017 165.305 17.7017C162.258 17.7017 160.254 19.1591 159.765 21.4778L163.028 21.7427C163.268 20.8981 164.022 20.277 165.289 20.277C166.489 20.277 167.177 20.8815 167.177 21.9249V21.9746C167.177 22.7944 166.307 22.9021 164.096 23.1174C161.579 23.3492 159.318 24.1939 159.318 27.0342C159.318 29.5515 161.115 30.8268 163.541 30.8268ZM164.552 28.3922C163.467 28.3922 162.688 27.8871 162.688 26.9182C162.688 25.9245 163.508 25.436 164.75 25.2621C165.52 25.1544 166.779 24.9723 167.201 24.6907V26.0405C167.201 27.3737 166.1 28.3922 164.552 28.3922Z" fill="#C14041"/>
<path d="M173.441 30.5866H176.969V23.3906C176.969 21.8255 178.111 20.749 179.668 20.749C180.157 20.749 180.827 20.8319 181.159 20.9395V17.8094C180.844 17.7348 180.405 17.6851 180.049 17.6851C178.625 17.6851 177.457 18.5132 176.993 20.0866H176.861V17.8673H173.441V30.5866Z" fill="#C14041"/>
<path d="M182.983 30.5866H186.51V17.8673H182.983V30.5866ZM184.755 16.2277C185.806 16.2277 186.668 15.4245 186.668 14.4391C186.668 13.4619 185.806 12.6587 184.755 12.6587C183.711 12.6587 182.85 13.4619 182.85 14.4391C182.85 15.4245 183.711 16.2277 184.755 16.2277Z" fill="#C14041"/>
<path d="M192.864 23.2333C192.872 21.5937 193.849 20.6331 195.273 20.6331C196.689 20.6331 197.542 21.5606 197.534 23.1174V30.5866H201.062V22.488C201.062 19.5235 199.323 17.7017 196.673 17.7017C194.785 17.7017 193.418 18.6292 192.847 20.1114H192.698V17.8673H189.336V30.5866H192.864V23.2333Z" fill="#C14041"/>
<path d="M209.638 30.8351C212.785 30.8351 214.905 29.3031 215.402 26.9431L212.139 26.7278C211.783 27.6966 210.872 28.2018 209.696 28.2018C207.933 28.2018 206.815 27.0342 206.815 25.1379V25.1296H215.476V24.1607C215.476 19.8382 212.86 17.7017 209.498 17.7017C205.755 17.7017 203.329 20.3598 203.329 24.2849C203.329 28.3177 205.722 30.8351 209.638 30.8351ZM206.815 22.9435C206.889 21.4943 207.991 20.335 209.556 20.335C211.088 20.335 212.148 21.4281 212.156 22.9435H206.815Z" fill="#C14041"/>
<path d="M137.997 44.7035H143.189V58.7063H146.733V44.7035H151.925V41.7472H137.997V44.7035Z" fill="#C14041"/>
<path d="M158.105 58.9547C161.252 58.9547 163.372 57.4228 163.868 55.0628L160.606 54.8475C160.25 55.8163 159.339 56.3214 158.163 56.3214C156.399 56.3214 155.281 55.1539 155.281 53.2575V53.2493H163.943V52.2804C163.943 47.9578 161.326 45.8214 157.964 45.8214C154.221 45.8214 151.795 48.4795 151.795 52.4046C151.795 56.4374 154.188 58.9547 158.105 58.9547ZM155.281 51.0631C155.356 49.614 156.457 48.4547 158.022 48.4547C159.554 48.4547 160.614 49.5477 160.622 51.0631H155.281Z" fill="#C14041"/>
<path d="M171.992 58.9547C175.379 58.9547 177.507 56.9674 177.672 54.0442H174.344C174.137 55.4023 173.242 56.1641 172.033 56.1641C170.385 56.1641 169.317 54.7812 169.317 52.3467C169.317 49.9452 170.394 48.5706 172.033 48.5706C173.325 48.5706 174.153 49.4235 174.344 50.6905H177.672C177.523 47.7508 175.296 45.8214 171.975 45.8214C168.116 45.8214 165.732 48.4961 165.732 52.3963C165.732 56.2635 168.075 58.9547 171.992 58.9547Z" fill="#C14041"/>
<path d="M183.459 51.353C183.467 49.7134 184.469 48.7528 185.91 48.7528C187.342 48.7528 188.187 49.672 188.179 51.237V58.7063H191.706V50.6077C191.715 47.6266 189.959 45.8214 187.309 45.8214C185.38 45.8214 184.088 46.7323 183.508 48.2311H183.359V41.7472H179.931V58.7063H183.459V51.353Z" fill="#C14041"/>
<path d="M198.01 51.353C198.018 49.7134 198.996 48.7528 200.42 48.7528C201.836 48.7528 202.689 49.6802 202.681 51.237V58.7063H206.208V50.6077C206.208 47.6432 204.469 45.8214 201.819 45.8214C199.931 45.8214 198.565 46.7488 197.994 48.2311H197.845V45.987H194.483V58.7063H198.01V51.353Z" fill="#C14041"/>
<path d="M208.988 58.7063H212.516V45.987H208.988V58.7063ZM210.761 44.3474C211.812 44.3474 212.673 43.5442 212.673 42.5587C212.673 41.5816 211.812 40.7784 210.761 40.7784C209.717 40.7784 208.856 41.5816 208.856 42.5587C208.856 43.5442 209.717 44.3474 210.761 44.3474Z" fill="#C14041"/>
<path d="M221.089 58.9547C224.476 58.9547 226.604 56.9674 226.769 54.0442H223.441C223.234 55.4023 222.339 56.1641 221.13 56.1641C219.482 56.1641 218.414 54.7812 218.414 52.3467C218.414 49.9452 219.491 48.5706 221.13 48.5706C222.422 48.5706 223.25 49.4235 223.441 50.6905H226.769C226.62 47.7508 224.393 45.8214 221.072 45.8214C217.213 45.8214 214.828 48.4961 214.828 52.3963C214.828 56.2635 217.172 58.9547 221.089 58.9547Z" fill="#C14041"/>
<path d="M232.655 58.9465C234.535 58.9465 235.752 58.1267 236.373 56.9425H236.472V58.7063H239.818V50.1274C239.818 47.0966 237.251 45.8214 234.419 45.8214C231.371 45.8214 229.368 47.2788 228.879 49.5974L232.142 49.8624C232.382 49.0178 233.135 48.3967 234.402 48.3967C235.603 48.3967 236.29 49.0012 236.29 50.0446V50.0943C236.29 50.9141 235.421 51.0217 233.21 51.237C230.692 51.4689 228.432 52.3135 228.432 55.1539C228.432 57.6712 230.229 58.9465 232.655 58.9465ZM233.665 56.5119C232.58 56.5119 231.802 56.0068 231.802 55.0379C231.802 54.0442 232.622 53.5557 233.864 53.3818C234.634 53.2741 235.893 53.0919 236.315 52.8104V54.1602C236.315 55.4934 235.214 56.5119 233.665 56.5119Z" fill="#C14041"/>
<path d="M246.082 41.7472H242.555V58.7063H246.082V41.7472Z" fill="#C14041"/>
<path d="M147.843 74.7443H151.279C151.23 71.7218 148.746 69.635 144.97 69.635C141.251 69.635 138.527 71.6887 138.544 74.7691C138.535 77.2699 140.299 78.7025 143.164 79.3898L145.011 79.8536C146.858 80.3007 147.884 80.8307 147.893 81.9734C147.884 83.2156 146.708 84.0602 144.887 84.0602C143.024 84.0602 141.682 83.199 141.566 81.5014H138.096C138.188 85.1698 140.813 87.0661 144.928 87.0661C149.069 87.0661 151.503 85.087 151.511 81.9817C151.503 79.158 149.375 77.6591 146.427 76.9967L144.903 76.6323C143.429 76.2928 142.195 75.7463 142.22 74.529C142.22 73.4359 143.189 72.6327 144.945 72.6327C146.659 72.6327 147.71 73.4111 147.843 74.7443Z" fill="#C14041"/>
<path d="M159.604 87.0744C163.463 87.0744 165.864 84.4328 165.864 80.516C165.864 76.5744 163.463 73.9411 159.604 73.9411C155.745 73.9411 153.343 76.5744 153.343 80.516C153.343 84.4328 155.745 87.0744 159.604 87.0744ZM159.62 84.3418C157.84 84.3418 156.929 82.7104 156.929 80.4912C156.929 78.2719 157.84 76.6323 159.62 76.6323C161.368 76.6323 162.278 78.2719 162.278 80.4912C162.278 82.7104 161.368 84.3418 159.62 84.3418Z" fill="#C14041"/>
<path d="M171.685 69.8669H168.158V86.826H171.685V69.8669Z" fill="#C14041"/>
<path d="M182.668 81.4104C182.676 83.1162 181.509 84.0105 180.242 84.0105C178.908 84.0105 178.047 83.0748 178.039 81.576V74.1067H174.511V82.2053C174.52 85.1781 176.259 86.9916 178.817 86.9916C180.73 86.9916 182.105 86.0062 182.676 84.5157H182.809V86.826H186.196V74.1067H182.668V81.4104Z" fill="#C14041"/>
<path d="M195.783 74.1067H193.389V71.0593H189.862V74.1067H188.123V76.7565H189.862V83.3812C189.845 85.8737 191.543 87.1075 194.102 86.9999C195.013 86.9668 195.658 86.7846 196.014 86.6687L195.46 84.0436C195.286 84.0768 194.913 84.1596 194.582 84.1596C193.878 84.1596 193.389 83.8946 193.389 82.9175V76.7565H195.783V74.1067Z" fill="#C14041"/>
<path d="M198.081 86.826H201.608V74.1067H198.081V86.826ZM199.853 72.4671C200.904 72.4671 201.766 71.6638 201.766 70.6784C201.766 69.7013 200.904 68.898 199.853 68.898C198.809 68.898 197.948 69.7013 197.948 70.6784C197.948 71.6638 198.809 72.4671 199.853 72.4671Z" fill="#C14041"/>
<path d="M210.181 87.0744C214.04 87.0744 216.441 84.4328 216.441 80.516C216.441 76.5744 214.04 73.9411 210.181 73.9411C206.322 73.9411 203.921 76.5744 203.921 80.516C203.921 84.4328 206.322 87.0744 210.181 87.0744ZM210.197 84.3418C208.417 84.3418 207.506 82.7104 207.506 80.4912C207.506 78.2719 208.417 76.6323 210.197 76.6323C211.945 76.6323 212.856 78.2719 212.856 80.4912C212.856 82.7104 211.945 84.3418 210.197 84.3418Z" fill="#C14041"/>
<path d="M222.263 79.4726C222.271 77.833 223.248 76.8725 224.672 76.8725C226.088 76.8725 226.941 77.7999 226.933 79.3567V86.826H230.461V78.7274C230.461 75.7628 228.722 73.9411 226.072 73.9411C224.184 73.9411 222.817 74.8685 222.246 76.3508H222.097V74.1067H218.735V86.826H222.263V79.4726Z" fill="#C14041"/>
<path d="M243.824 77.7337C243.509 75.3902 241.621 73.9411 238.408 73.9411C235.154 73.9411 233.009 75.4482 233.017 77.8993C233.009 79.8039 234.21 81.0377 236.694 81.5346L238.897 81.9734C240.006 82.197 240.511 82.6028 240.528 83.2404C240.511 83.994 239.692 84.5322 238.458 84.5322C237.199 84.5322 236.363 83.994 236.147 82.9589L232.678 83.141C233.009 85.5756 235.079 87.0744 238.449 87.0744C241.745 87.0744 244.105 85.3934 244.114 82.8843C244.105 81.046 242.905 79.9446 240.437 79.4395L238.135 78.9758C236.951 78.7191 236.512 78.3133 236.52 77.7005C236.512 76.9387 237.373 76.4419 238.466 76.4419C239.692 76.4419 240.42 77.1126 240.594 77.9324L243.824 77.7337Z" fill="#C14041"/>
<g clip-path="url(#clip0)">
<path d="M44.1641 69.6497C40.7189 42.3845 48.3402 20.238 48.3402 20.238C25.8939 30.2666 8.45898 56.9051 8.45898 56.9051C25.2675 55.0247 44.1641 69.6497 44.1641 69.6497ZM43.1201 25.0434C43.2245 24.9389 43.3289 24.9389 43.3289 24.8345C44.0597 24.3122 44.4773 23.9988 44.4773 23.9988C44.0597 24.2077 43.7465 24.5211 43.3289 24.8345C43.3289 24.9389 43.2245 25.0434 43.1201 25.0434C30.07 34.6541 14.6186 54.189 14.6186 54.189C30.8008 55.1292 41.7629 66.6203 41.7629 66.6203C23.2839 52.7265 11.9042 55.3381 11.9042 55.3381C24.7455 39.0416 38.8397 28.2818 43.1201 25.0434Z" fill="#C14041"/>
<path d="M77.8858 72.5745C74.9626 37.7879 79.9738 0.180664 79.9738 0.180664C63.0608 7.07532 50.6371 27.237 50.6371 27.237C47.9227 41.862 47.1919 62.4415 47.1919 62.4415C63.0608 63.2772 77.8858 72.5745 77.8858 72.5745ZM77.677 2.89674C77.677 2.89674 60.5552 16.1637 52.4119 27.5504C52.4119 27.5504 61.286 12.2985 77.677 2.89674ZM75.589 69.6495C75.589 69.6495 64.3137 63.6951 48.3403 60.0388C48.3403 60.0388 61.4948 60.2477 75.589 69.6495Z" fill="#C14041"/>
<path d="M102.42 75.3951C96.6781 55.3379 102.42 24.103 102.42 24.103C89.2656 29.8486 80.8091 41.862 80.8091 41.862C80.3915 50.0102 80.8091 64.9486 80.8091 64.9486C94.6945 65.7844 102.42 75.3951 102.42 75.3951ZM99.9145 27.5504C99.9145 27.5504 87.6996 37.0566 82.3752 42.5932C82.3752 42.5932 87.6996 34.1316 99.9145 27.5504ZM99.9145 71.7388C93.1284 64.4263 82.3752 63.5906 82.3752 63.5906C94.0681 62.546 99.9145 71.7388 99.9145 71.7388Z" fill="#C14041"/>
</g>
<path d="M6.81805e-05 76.3684C6.81805e-05 76.3684 0.422405 76.6506 0.985527 77.215C1.68943 77.6383 2.6749 78.4849 3.94193 79.3315C4.64583 79.7548 5.34973 80.1781 6.05363 80.7425C6.89832 81.1658 7.74299 81.7302 8.72845 82.2946C9.71392 82.859 10.6994 83.4233 11.8256 83.9877C12.9519 84.5521 14.0781 85.1165 15.3451 85.6809C16.6122 86.2453 17.8792 86.8097 19.1462 87.3741C20.554 87.9385 21.9618 88.3618 23.3696 88.9262C26.326 89.9139 29.4232 90.7605 32.8019 91.3249C33.6466 91.466 34.4913 91.6071 35.336 91.7482C36.1806 91.8893 37.0253 91.8893 37.87 92.0304C38.7147 92.1715 39.5594 92.1715 40.5448 92.3126C41.3895 92.3126 42.375 92.3126 43.2197 92.3126C45.0498 92.3126 46.88 92.1715 48.7101 91.8893L50.1179 91.7482L51.3849 91.466C52.2296 91.3249 53.2151 91.1838 54.0598 90.9016C57.7201 90.055 61.0988 88.7851 64.3367 87.3741C67.5747 85.9631 70.6719 84.2699 73.4875 82.7179C76.4439 81.1658 79.1187 79.6137 81.7935 78.4849C84.4684 77.3561 87.1432 76.5095 89.5365 76.3684C92.0705 76.0862 94.323 76.5095 96.2939 77.0739C98.2648 77.7794 99.9542 78.4849 101.221 79.3315C102.488 80.1781 103.615 80.7425 104.178 81.3069C104.882 81.7302 105.163 82.0124 105.163 82.0124C105.163 82.0124 104.882 81.7302 104.318 81.1658C103.755 80.6014 102.911 79.7548 101.644 78.7671C100.377 77.7794 98.828 76.6506 96.7163 75.804C94.7453 74.8163 92.0705 74.252 89.2549 74.252C87.8471 74.252 86.4393 74.393 84.8907 74.6752C83.4829 74.9574 81.9343 75.3807 80.3857 75.9451C77.4293 76.9328 74.4729 78.3438 71.5165 79.8959C68.5602 81.3069 65.463 82.859 62.3658 84.1289C59.2686 85.3987 56.0307 86.6686 52.7927 87.3741C51.9481 87.5152 51.2442 87.7974 50.2587 87.9385L48.9917 88.2207L47.7246 88.3618C46.0353 88.5029 44.3459 88.7851 42.6565 88.7851C41.8119 88.7851 40.9672 88.7851 40.1225 88.7851C39.2778 88.7851 38.4331 88.644 37.5885 88.644C36.7438 88.644 35.8991 88.644 35.1952 88.5029C34.3505 88.3618 33.6466 88.3618 32.8019 88.2207C29.564 87.7974 26.4668 87.233 23.6512 86.5275C22.2434 86.2453 20.8356 85.6809 19.4278 85.3987C18.02 84.9754 16.7529 84.5521 15.4859 84.1289C14.2189 83.7056 13.0927 83.2823 11.9664 82.859C10.8402 82.4357 9.8547 82.0124 8.72845 81.5891C6.75753 80.7425 5.06816 80.037 3.66036 79.3315C2.25255 78.626 1.12632 78.2027 0.422414 77.7794C0.422414 76.6506 6.81805e-05 76.3684 6.81805e-05 76.3684Z" fill="#C14041"/>
<path d="M99.9048 86.8458C99.9048 86.8458 99.6229 86.5627 99.2002 85.9965C98.6365 85.4303 97.7909 84.8642 96.5226 84.298C95.2543 83.7318 93.5633 83.1656 91.5904 83.0241C89.6174 82.8826 87.3627 82.8826 84.967 83.3072C82.5713 83.7318 80.0347 84.298 77.3572 85.1472C74.6797 85.9965 72.0021 87.1289 69.3246 88.4027C67.9154 88.9689 66.6471 89.8182 65.2378 90.3843C63.8286 91.0921 62.5603 91.6582 61.1511 92.3659C58.4736 93.4983 55.5142 94.6306 52.6957 95.3383C49.7364 96.0461 46.777 96.6122 43.8176 96.8953C42.4084 97.0369 40.8582 97.0369 39.449 97.0369C38.0398 97.0369 36.6306 97.0369 35.0804 96.8953C32.262 96.6122 29.5844 96.1876 27.0478 95.4799C24.5112 94.9137 22.1155 94.0645 19.8608 93.3567C15.4922 91.7998 11.9691 90.2428 9.43252 88.9689C6.89592 87.8366 5.48669 87.1289 5.48669 87.1289C5.48669 87.1289 5.76853 87.4119 6.33222 87.8366C6.89591 88.2612 7.74145 88.9689 8.86883 89.8182C9.99621 90.6674 11.4054 91.5167 13.0965 92.5075C14.7876 93.4983 16.6196 94.6306 18.8743 95.6214C20.9882 96.6122 23.3838 97.603 26.0614 98.5938C28.7389 99.4431 31.5574 100.151 34.5167 100.575C36.0669 100.859 37.617 101 39.1672 101C40.7173 101 42.4084 101 43.9585 100.859C47.1998 100.717 50.441 100.151 53.5413 99.3015C56.6416 98.4523 59.7419 97.3199 62.5603 95.9045C63.9695 95.1968 65.3788 94.4891 66.6471 93.6398C68.0563 92.9321 69.1837 92.0829 70.452 91.5167C72.9886 90.1012 75.5252 88.8274 77.9209 87.8366C80.3166 86.8458 82.7122 85.9965 84.967 85.4303C87.2218 84.8642 89.1947 84.5811 91.1676 84.4395C92.9996 84.4395 94.6907 84.5811 95.959 85.0057C97.2273 85.4303 98.2137 85.855 98.7774 86.2796C99.6229 86.4211 99.9048 86.8458 99.9048 86.8458Z" fill="#C14041"/>
<defs>
<clipPath id="clip0">
<rect width="93.9609" height="75.2144" fill="white" transform="translate(8.45898 0.180664)"/>
</clipPath>
</defs>
</svg>
