<svg width="100" height="100" viewBox="0 0 100 100" fill="none" xmlns="http://www.w3.org/2000/svg">
<circle cx="50" cy="50" r="49.5" stroke="#C14041"/>
<path d="M40.104 67.224V65.688L52.776 52.392C54.472 50.632 55.752 48.904 56.616 47.208C57.512 45.512 57.96 43.736 57.96 41.88C57.96 39.608 57.272 37.896 55.896 36.744C54.52 35.56 52.52 34.968 49.896 34.968C47.912 34.968 46.104 35.32 44.472 36.024C42.872 36.728 41.368 37.8 39.96 39.24L39 37.512C40.216 36.168 41.784 35.08 43.704 34.248C45.656 33.416 47.72 33 49.896 33C53.128 33 55.624 33.768 57.384 35.304C59.176 36.84 60.072 39.016 60.072 41.832C60.072 43.976 59.528 46.04 58.44 48.024C57.352 50.008 55.848 51.992 53.928 53.976L42.216 66.024V65.352H61.56V67.224H40.104Z" fill="#C14041"/>
</svg>
