<svg width="100" height="100" viewBox="0 0 100 100" fill="none" xmlns="http://www.w3.org/2000/svg">
<circle cx="50" cy="50" r="49.5" stroke="#C14041"/>
<path d="M50.616 67.608C48.376 67.608 46.248 67.256 44.232 66.552C42.216 65.816 40.472 64.76 39 63.384L40.008 61.656C41.672 63.064 43.352 64.088 45.048 64.728C46.744 65.336 48.6 65.64 50.616 65.64C53.464 65.64 55.64 65 57.144 63.72C58.648 62.44 59.4 60.6 59.4 58.2C59.4 55.832 58.616 54.04 57.048 52.824C55.48 51.576 53.176 50.952 50.136 50.952H45.384V49.08H50.04C52.6 49.08 54.648 48.392 56.184 47.016C57.72 45.64 58.488 43.784 58.488 41.448C58.488 39.368 57.784 37.768 56.376 36.648C55 35.528 53.048 34.968 50.52 34.968C46.648 34.968 43.336 36.392 40.584 39.24L39.624 37.512C40.872 36.104 42.456 35 44.376 34.2C46.328 33.4 48.376 33 50.52 33C53.656 33 56.12 33.752 57.912 35.256C59.704 36.728 60.6 38.792 60.6 41.448C60.6 43.592 59.992 45.432 58.776 46.968C57.56 48.472 55.912 49.496 53.832 50.04V49.56C56.296 49.976 58.184 50.952 59.496 52.488C60.84 53.992 61.512 55.896 61.512 58.2C61.512 61.112 60.536 63.416 58.584 65.112C56.664 66.776 54.008 67.608 50.616 67.608Z" fill="#C14041"/>
</svg>
