<svg width="247" height="101" viewBox="0 0 247 101" fill="none" xmlns="http://www.w3.org/2000/svg">
<path d="M138.643 13.4469V30.406H142.121V19.3263H142.262L146.651 30.3232H149.019L153.408 19.3677H153.549V30.406H157.026V13.4469H152.605L147.934 24.8413H147.735L143.065 13.4469H138.643Z" fill="white" fill-opacity="0.7"/>
<path d="M163.541 30.6461C165.421 30.6461 166.638 29.8263 167.259 28.6422H167.359V30.406H170.704V21.8271C170.704 18.7963 168.137 17.521 165.305 17.521C162.258 17.521 160.254 18.9785 159.765 21.2971L163.028 21.5621C163.268 20.7174 164.022 20.0964 165.289 20.0964C166.489 20.0964 167.177 20.7009 167.177 21.7443V21.7939C167.177 22.6137 166.307 22.7214 164.096 22.9367C161.579 23.1686 159.318 24.0132 159.318 26.8535C159.318 29.3709 161.115 30.6461 163.541 30.6461ZM164.552 28.2116C163.467 28.2116 162.688 27.7064 162.688 26.7376C162.688 25.7439 163.508 25.2553 164.75 25.0814C165.521 24.9738 166.779 24.7916 167.202 24.51V25.8598C167.202 27.193 166.1 28.2116 164.552 28.2116Z" fill="white" fill-opacity="0.7"/>
<path d="M173.441 30.406H176.969V23.21C176.969 21.6449 178.111 20.5684 179.668 20.5684C180.157 20.5684 180.828 20.6512 181.159 20.7588V17.6287C180.844 17.5542 180.405 17.5045 180.049 17.5045C178.625 17.5045 177.457 18.3326 176.994 19.9059H176.861V17.6867H173.441V30.406Z" fill="white" fill-opacity="0.7"/>
<path d="M182.983 30.406H186.51V17.6867H182.983V30.406ZM184.755 16.0471C185.806 16.0471 186.668 15.2438 186.668 14.2584C186.668 13.2813 185.806 12.478 184.755 12.478C183.711 12.478 182.85 13.2813 182.85 14.2584C182.85 15.2438 183.711 16.0471 184.755 16.0471Z" fill="white" fill-opacity="0.7"/>
<path d="M192.864 23.0526C192.872 21.413 193.849 20.4524 195.273 20.4524C196.689 20.4524 197.542 21.3799 197.534 22.9367V30.406H201.062V22.3073C201.062 19.3428 199.323 17.521 196.673 17.521C194.785 17.521 193.419 18.4485 192.847 19.9308H192.698V17.6867H189.336V30.406H192.864V23.0526Z" fill="white" fill-opacity="0.7"/>
<path d="M209.639 30.6544C212.785 30.6544 214.905 29.1225 215.402 26.7624L212.139 26.5471C211.783 27.516 210.872 28.0211 209.697 28.0211C207.933 28.0211 206.815 26.8535 206.815 24.9572V24.9489H215.477V23.9801C215.477 19.6575 212.86 17.521 209.498 17.521C205.755 17.521 203.329 20.1792 203.329 24.1043C203.329 28.137 205.722 30.6544 209.639 30.6544ZM206.815 22.7628C206.889 21.3137 207.991 20.1543 209.556 20.1543C211.088 20.1543 212.148 21.2474 212.156 22.7628H206.815Z" fill="white" fill-opacity="0.7"/>
<path d="M137.997 44.5228H143.189V58.5257H146.733V44.5228H151.926V41.5666H137.997V44.5228Z" fill="white" fill-opacity="0.7"/>
<path d="M158.105 58.7741C161.252 58.7741 163.372 57.2421 163.869 54.8821L160.606 54.6668C160.25 55.6357 159.339 56.1408 158.163 56.1408C156.399 56.1408 155.281 54.9732 155.281 53.0769V53.0686H163.943V52.0998C163.943 47.7772 161.326 45.6407 157.964 45.6407C154.221 45.6407 151.795 48.2989 151.795 52.224C151.795 56.2567 154.188 58.7741 158.105 58.7741ZM155.281 50.8825C155.356 49.4333 156.457 48.274 158.022 48.274C159.554 48.274 160.614 49.3671 160.622 50.8825H155.281Z" fill="white" fill-opacity="0.7"/>
<path d="M171.992 58.7741C175.379 58.7741 177.507 56.7867 177.673 53.8636H174.344C174.137 55.2216 173.242 55.9834 172.033 55.9834C170.386 55.9834 169.317 54.6006 169.317 52.166C169.317 49.7646 170.394 48.3899 172.033 48.3899C173.325 48.3899 174.153 49.2429 174.344 50.5098H177.673C177.524 47.5701 175.296 45.6407 171.975 45.6407C168.117 45.6407 165.732 48.3154 165.732 52.2157C165.732 56.0828 168.075 58.7741 171.992 58.7741Z" fill="white" fill-opacity="0.7"/>
<path d="M183.459 51.1723C183.467 49.5327 184.469 48.5721 185.91 48.5721C187.343 48.5721 188.187 49.4913 188.179 51.0564V58.5257H191.707V50.427C191.715 47.4459 189.959 45.6407 187.309 45.6407C185.38 45.6407 184.088 46.5516 183.509 48.0504H183.359V41.5666H179.931V58.5257H183.459V51.1723Z" fill="white" fill-opacity="0.7"/>
<path d="M198.01 51.1723C198.019 49.5327 198.996 48.5721 200.42 48.5721C201.836 48.5721 202.689 49.4996 202.681 51.0564V58.5257H206.208V50.427C206.208 47.4625 204.469 45.6407 201.819 45.6407C199.931 45.6407 198.565 46.5682 197.994 48.0504H197.845V45.8063H194.483V58.5257H198.01V51.1723Z" fill="white" fill-opacity="0.7"/>
<path d="M208.989 58.5257H212.516V45.8063H208.989V58.5257ZM210.761 44.1667C211.812 44.1667 212.674 43.3635 212.674 42.3781C212.674 41.4009 211.812 40.5977 210.761 40.5977C209.717 40.5977 208.856 41.4009 208.856 42.3781C208.856 43.3635 209.717 44.1667 210.761 44.1667Z" fill="white" fill-opacity="0.7"/>
<path d="M221.089 58.7741C224.476 58.7741 226.604 56.7867 226.77 53.8636H223.441C223.234 55.2216 222.339 55.9834 221.13 55.9834C219.482 55.9834 218.414 54.6006 218.414 52.166C218.414 49.7646 219.491 48.3899 221.13 48.3899C222.422 48.3899 223.25 49.2429 223.441 50.5098H226.77C226.62 47.5701 224.393 45.6407 221.072 45.6407C217.213 45.6407 214.829 48.3154 214.829 52.2157C214.829 56.0828 217.172 58.7741 221.089 58.7741Z" fill="white" fill-opacity="0.7"/>
<path d="M232.655 58.7658C234.535 58.7658 235.752 57.946 236.373 56.7618H236.473V58.5257H239.818V49.9467C239.818 46.916 237.251 45.6407 234.419 45.6407C231.372 45.6407 229.368 47.0981 228.879 49.4168L232.142 49.6818C232.382 48.8371 233.135 48.2161 234.402 48.2161C235.603 48.2161 236.29 48.8206 236.29 49.8639V49.9136C236.29 50.7334 235.421 50.8411 233.21 51.0564C230.693 51.2882 228.432 52.1329 228.432 54.9732C228.432 57.4906 230.229 58.7658 232.655 58.7658ZM233.665 56.3312C232.581 56.3312 231.802 55.8261 231.802 54.8573C231.802 53.8636 232.622 53.375 233.864 53.2011C234.634 53.0934 235.893 52.9113 236.315 52.6297V53.9795C236.315 55.3127 235.214 56.3312 233.665 56.3312Z" fill="white" fill-opacity="0.7"/>
<path d="M246.082 41.5666H242.555V58.5257H246.082V41.5666Z" fill="white" fill-opacity="0.7"/>
<path d="M147.843 74.5636H151.28C151.23 71.5411 148.746 69.4544 144.97 69.4544C141.252 69.4544 138.527 71.508 138.544 74.5885C138.535 77.0893 140.299 78.5219 143.164 79.2092L145.011 79.6729C146.858 80.1201 147.884 80.65 147.893 81.7928C147.884 83.0349 146.709 83.8795 144.887 83.8795C143.024 83.8795 141.682 83.0183 141.566 81.3208H138.097C138.188 84.9892 140.813 86.8855 144.928 86.8855C149.069 86.8855 151.503 84.9064 151.511 81.8011C151.503 78.9773 149.375 77.4785 146.427 76.816L144.903 76.4517C143.429 76.1121 142.196 75.5656 142.22 74.3483C142.22 73.2553 143.189 72.452 144.945 72.452C146.659 72.452 147.711 73.2304 147.843 74.5636Z" fill="white" fill-opacity="0.7"/>
<path d="M159.604 86.8938C163.463 86.8938 165.864 84.2522 165.864 80.3354C165.864 76.3937 163.463 73.7604 159.604 73.7604C155.745 73.7604 153.344 76.3937 153.344 80.3354C153.344 84.2522 155.745 86.8938 159.604 86.8938ZM159.62 84.1611C157.84 84.1611 156.929 82.5298 156.929 80.3105C156.929 78.0913 157.84 76.4517 159.62 76.4517C161.368 76.4517 162.279 78.0913 162.279 80.3105C162.279 82.5298 161.368 84.1611 159.62 84.1611Z" fill="white" fill-opacity="0.7"/>
<path d="M171.686 69.6862H168.158V86.6453H171.686V69.6862Z" fill="white" fill-opacity="0.7"/>
<path d="M182.668 81.2297C182.676 82.9355 181.509 83.8299 180.242 83.8299C178.909 83.8299 178.047 82.8941 178.039 81.3953V73.926H174.511V82.0246C174.52 84.9975 176.259 86.8109 178.817 86.8109C180.73 86.8109 182.105 85.8255 182.676 84.335H182.809V86.6453H186.196V73.926H182.668V81.2297Z" fill="white" fill-opacity="0.7"/>
<path d="M195.783 73.926H193.39V70.8787H189.862V73.926H188.123V76.5759H189.862V83.2005C189.845 85.693 191.543 86.9269 194.102 86.8192C195.013 86.7861 195.659 86.6039 196.015 86.488L195.46 83.863C195.286 83.8961 194.913 83.9789 194.582 83.9789C193.878 83.9789 193.39 83.7139 193.39 82.7368V76.5759H195.783V73.926Z" fill="white" fill-opacity="0.7"/>
<path d="M198.081 86.6453H201.608V73.926H198.081V86.6453ZM199.853 72.2864C200.904 72.2864 201.766 71.4832 201.766 70.4978C201.766 69.5206 200.904 68.7174 199.853 68.7174C198.809 68.7174 197.948 69.5206 197.948 70.4978C197.948 71.4832 198.809 72.2864 199.853 72.2864Z" fill="white" fill-opacity="0.7"/>
<path d="M210.181 86.8938C214.04 86.8938 216.441 84.2522 216.441 80.3354C216.441 76.3937 214.04 73.7604 210.181 73.7604C206.322 73.7604 203.921 76.3937 203.921 80.3354C203.921 84.2522 206.322 86.8938 210.181 86.8938ZM210.198 84.1611C208.417 84.1611 207.506 82.5298 207.506 80.3105C207.506 78.0913 208.417 76.4517 210.198 76.4517C211.945 76.4517 212.856 78.0913 212.856 80.3105C212.856 82.5298 211.945 84.1611 210.198 84.1611Z" fill="white" fill-opacity="0.7"/>
<path d="M222.263 79.292C222.271 77.6524 223.248 76.6918 224.672 76.6918C226.088 76.6918 226.941 77.6193 226.933 79.176V86.6453H230.461V78.5467C230.461 75.5822 228.722 73.7604 226.072 73.7604C224.184 73.7604 222.818 74.6878 222.246 76.1701H222.097V73.926H218.735V86.6453H222.263V79.292Z" fill="white" fill-opacity="0.7"/>
<path d="M243.824 77.553C243.509 75.2095 241.621 73.7604 238.408 73.7604C235.154 73.7604 233.009 75.2675 233.017 77.7186C233.009 79.6232 234.21 80.857 236.694 81.3539L238.897 81.7928C240.006 82.0164 240.512 82.4221 240.528 83.0597C240.512 83.8133 239.692 84.3515 238.458 84.3515C237.199 84.3515 236.363 83.8133 236.148 82.7782L232.678 82.9604C233.009 85.3949 235.079 86.8938 238.45 86.8938C241.745 86.8938 244.105 85.2128 244.114 82.7037C244.105 80.8653 242.905 79.764 240.437 79.2589L238.135 78.7951C236.951 78.5384 236.512 78.1327 236.52 77.5199C236.512 76.758 237.373 76.2612 238.466 76.2612C239.692 76.2612 240.42 76.9319 240.594 77.7517L243.824 77.553Z" fill="white" fill-opacity="0.7"/>
<g clip-path="url(#clip0)">
<path d="M44.1639 69.4688C40.7186 42.2036 48.3399 20.0571 48.3399 20.0571C25.8937 30.0857 8.45874 56.7242 8.45874 56.7242C25.2673 54.8438 44.1639 69.4688 44.1639 69.4688ZM43.1199 24.8625C43.2243 24.758 43.3287 24.758 43.3287 24.6536C44.0595 24.1312 44.4771 23.8178 44.4771 23.8178C44.0595 24.0268 43.7463 24.3402 43.3287 24.6536C43.3287 24.758 43.2243 24.8625 43.1199 24.8625C30.0697 34.4732 14.6184 54.0081 14.6184 54.0081C30.8006 54.9483 41.7627 66.4393 41.7627 66.4393C23.2837 52.5456 11.904 55.1572 11.904 55.1572C24.7453 38.8607 38.8394 28.1009 43.1199 24.8625Z" fill="white" fill-opacity="0.7"/>
<path d="M77.8854 72.3939C74.9622 37.6072 79.9734 0 79.9734 0C63.0605 6.89466 50.6368 27.0563 50.6368 27.0563C47.9223 41.6813 47.1915 62.2608 47.1915 62.2608C63.0605 63.0965 77.8854 72.3939 77.8854 72.3939ZM77.6766 2.71608C77.6766 2.71608 60.5549 15.9831 52.4116 27.3697C52.4116 27.3697 61.2857 12.1179 77.6766 2.71608ZM75.5886 69.4689C75.5886 69.4689 64.3133 63.5144 48.3399 59.8581C48.3399 59.8581 61.4945 60.0671 75.5886 69.4689Z" fill="white" fill-opacity="0.7"/>
<path d="M102.42 75.2144C96.6776 55.1572 102.42 23.9224 102.42 23.9224C89.2651 29.6679 80.8086 41.6813 80.8086 41.6813C80.391 49.8296 80.8086 64.768 80.8086 64.768C94.694 65.6037 102.42 75.2144 102.42 75.2144ZM99.914 27.3697C99.914 27.3697 87.6991 36.876 82.3747 42.4126C82.3747 42.4126 87.6991 33.951 99.914 27.3697ZM99.914 71.5582C93.128 64.2457 82.3747 63.4099 82.3747 63.4099C94.0676 62.3653 99.914 71.5582 99.914 71.5582Z" fill="white" fill-opacity="0.7"/>
</g>
<path d="M-5.38898e-05 76.1878C-5.38898e-05 76.1878 0.422283 76.47 0.985405 77.0344C1.68931 77.4577 2.67478 78.3042 3.9418 79.1508C4.64571 79.5741 5.34961 79.9974 6.05351 80.5618C6.89819 80.9851 7.74287 81.5495 8.72833 82.1139C9.7138 82.6783 10.6993 83.2427 11.8255 83.8071C12.9518 84.3715 14.078 84.9359 15.345 85.5003C16.612 86.0647 17.8791 86.6291 19.1461 87.1934C20.5539 87.7578 21.9617 88.1811 23.3695 88.7455C26.3259 89.7332 29.4231 90.5798 32.8018 91.1442C33.6465 91.2853 34.4912 91.4264 35.3358 91.5675C36.1805 91.7086 37.0252 91.7086 37.8699 91.8497C38.7146 91.9908 39.5593 91.9908 40.5447 92.1319C41.3894 92.1319 42.3749 92.1319 43.2196 92.1319C45.0497 92.1319 46.8798 91.9908 48.71 91.7086L50.1178 91.5675L51.3848 91.2853C52.2295 91.1442 53.215 91.0031 54.0596 90.7209C57.7199 89.8743 61.0987 88.6044 64.3366 87.1934C67.5746 85.7825 70.6717 84.0893 73.4874 82.5372C76.4437 80.9851 79.1186 79.433 81.7934 78.3042C84.4682 77.1755 87.1431 76.3289 89.5363 76.1878C92.0704 75.9056 94.3229 76.3289 96.2938 76.8933C98.2647 77.5988 99.9541 78.3042 101.221 79.1508C102.488 79.9974 103.614 80.5618 104.178 81.1262C104.881 81.5495 105.163 81.8317 105.163 81.8317C105.163 81.8317 104.881 81.5495 104.318 80.9851C103.755 80.4207 102.91 79.5741 101.643 78.5864C100.376 77.5987 98.8278 76.47 96.7161 75.6234C94.7452 74.6357 92.0704 74.0713 89.2548 74.0713C87.847 74.0713 86.4392 74.2124 84.8906 74.4946C83.4828 74.7768 81.9342 75.2001 80.3856 75.7645C77.4292 76.7522 74.4728 78.1631 71.5164 79.7152C68.56 81.1262 65.4629 82.6783 62.3657 83.9482C59.2685 85.2181 56.0306 86.488 52.7926 87.1934C51.9479 87.3345 51.244 87.6167 50.2586 87.7578L48.9915 88.04L47.7245 88.1811C46.0352 88.3222 44.3458 88.6044 42.6564 88.6044C41.8117 88.6044 40.9671 88.6044 40.1224 88.6044C39.2777 88.6044 38.433 88.4633 37.5883 88.4633C36.7436 88.4633 35.899 88.4633 35.1951 88.3222C34.3504 88.1811 33.6465 88.1811 32.8018 88.04C29.5638 87.6167 26.4667 87.0523 23.6511 86.3469C22.2433 86.0647 20.8355 85.5003 19.4276 85.2181C18.0198 84.7948 16.7528 84.3715 15.4858 83.9482C14.2188 83.5249 13.0925 83.1016 11.9663 82.6783C10.84 82.255 9.85458 81.8317 8.72833 81.4084C6.75741 80.5618 5.06804 79.8563 3.66024 79.1508C2.25243 78.4453 1.12619 78.022 0.422292 77.5988C0.422292 76.47 -5.38898e-05 76.1878 -5.38898e-05 76.1878Z" fill="white" fill-opacity="0.7"/>
<path d="M99.9049 86.6651C99.9049 86.6651 99.6231 86.382 99.2003 85.8158C98.6366 85.2497 97.7911 84.6835 96.5228 84.1173C95.2545 83.5512 93.5634 82.985 91.5905 82.8434C89.6176 82.7019 87.3628 82.7019 84.9671 83.1265C82.5714 83.5512 80.0348 84.1173 77.3573 84.9666C74.6798 85.8158 72.0022 86.9482 69.3247 88.2221C67.9155 88.7882 66.6472 89.6375 65.238 90.2037C63.8287 90.9114 62.5604 91.4776 61.1512 92.1853C58.4737 93.3176 55.5143 94.45 52.6959 95.1577C49.7365 95.8654 46.7771 96.4316 43.8177 96.7146C42.4085 96.8562 40.8584 96.8562 39.4491 96.8562C38.0399 96.8562 36.6307 96.8562 35.0805 96.7146C32.2621 96.4316 29.5846 96.0069 27.048 95.2992C24.5114 94.733 22.1157 93.8838 19.8609 93.1761C15.4923 91.6191 11.9692 90.0621 9.43264 88.7882C6.89604 87.6559 5.48681 86.9482 5.48681 86.9482C5.48681 86.9482 5.76865 87.2313 6.33234 87.6559C6.89603 88.0805 7.74157 88.7882 8.86895 89.6375C9.99633 90.4868 11.4056 91.336 13.0966 92.3268C14.7877 93.3176 16.6197 94.45 18.8744 95.4408C20.9883 96.4316 23.384 97.4224 26.0615 98.4132C28.739 99.2624 31.5575 99.9701 34.5168 100.395C36.067 100.678 37.6171 100.819 39.1673 100.819C40.7174 100.819 42.4085 100.819 43.9587 100.678C47.1999 100.536 50.4411 99.9701 53.5414 99.1209C56.6417 98.2716 59.742 97.1393 62.5604 95.7238C63.9697 95.0161 65.3789 94.3084 66.6472 93.4592C68.0564 92.7514 69.1838 91.9022 70.4521 91.336C72.9887 89.9206 75.5253 88.6467 77.921 87.6559C80.3167 86.6651 82.7124 85.8158 84.9671 85.2497C87.2219 84.6835 89.1948 84.4004 91.1677 84.2589C92.9997 84.2589 94.6908 84.4004 95.9591 84.825C97.2274 85.2497 98.2138 85.6743 98.7775 86.0989C99.6231 86.2405 99.9049 86.6651 99.9049 86.6651Z" fill="white" fill-opacity="0.7"/>
<defs>
<clipPath id="clip0">
<rect width="93.9609" height="75.2144" fill="white" transform="translate(8.45874)"/>
</clipPath>
</defs>
</svg>
